<?xml version="1.0" encoding="utf-8"?><svg viewBox="0 0 44 44" xmlns="http://www.w3.org/2000/svg" xmlns:xlink="http://www.w3.org/1999/xlink"><style>:root>svg{display:none}:root>svg:target{display:block}</style><svg viewBox="0 0 16 17" id="angle" xmlns="http://www.w3.org/2000/svg"><path d="M12.473 5.974a.666.666 0 0 0-.946 0L8.474 9.027a.667.667 0 0 1-.947 0L4.474 5.974a.667.667 0 1 0-.947.94l3.06 3.06a2 2 0 0 0 2.827 0l3.06-3.06a.667.667 0 0 0 0-.94Z"/></svg><svg viewBox="0 0 20 20" id="angle-right" xmlns="http://www.w3.org/2000/svg"><path d="M12.832 8.233 9.007 4.408a.833.833 0 1 0-1.175 1.184l3.834 3.816a.833.833 0 0 1 0 1.184l-3.834 3.816a.834.834 0 0 0 1.175 1.184l3.825-3.825a2.5 2.5 0 0 0 0-3.534Z"/></svg><svg viewBox="0 0 24 24" id="arrow-left" xmlns="http://www.w3.org/2000/svg"><path d="M19 11H9l3.29-3.29a1.001 1.001 0 1 0-1.41-1.42l-4.29 4.3A2 2 0 0 0 6 12a2 2 0 0 0 .59 1.4l4.29 4.3a1 1 0 1 0 1.41-1.42L9 13h10a1 1 0 1 0 0-2Z"/></svg><svg viewBox="0 0 20 20" id="arrow-top" xmlns="http://www.w3.org/2000/svg"><path d="m14.758 8.233-3.583-3.575a1.667 1.667 0 0 0-2.35 0L5.24 8.233a.833.833 0 1 0 1.184 1.175l2.741-2.741v9.166a.833.833 0 1 0 1.667 0V6.668l2.742 2.741a.834.834 0 1 0 1.183-1.175Z"/></svg><svg viewBox="0 0 16 12" id="burger" xmlns="http://www.w3.org/2000/svg"><path d="M0 1h16M0 6h16M0 11h16"/></svg><svg viewBox="0 0 24 24" id="cart" xmlns="http://www.w3.org/2000/svg"><g clip-path="url(#fa)"><path d="M23.27 9.03C22.7 8.37 21.87 8 21 8h-.09c-.5-4.49-4.32-8-8.94-8-4.62 0-8.45 3.51-8.95 8h-.05C2.1 8 1.27 8.38.7 9.03c-.57.66-.82 1.53-.7 2.39l1.06 7.42c.42 2.94 2.97 5.15 5.94 5.15h9.97c2.97 0 5.52-2.21 5.94-5.15l1.06-7.42c.12-.86-.13-1.73-.7-2.39ZM11.97 2c3.52 0 6.44 2.61 6.93 6H5.04c.49-3.39 3.41-6 6.93-6Zm10.02 9.14-1.06 7.42a4.013 4.013 0 0 1-3.96 3.43H7c-1.98 0-3.68-1.48-3.96-3.43l-1.06-7.42c-.04-.29.04-.57.23-.8.19-.22.46-.35.76-.35H21c.29 0 .56.12.75.34.19.22.28.51.23.8l.01.01Z"/></g><defs><clipPath id="fa"><path d="M0 0h24v24H0z"/></clipPath></defs></svg><svg viewBox="0 0 24 24" id="catalog" xmlns="http://www.w3.org/2000/svg"><path d="M8.865 1.374C8.795 1.358 7.145 1 5.5 1c-1.645 0-3.295.358-3.365.374a.998.998 0 0 0-.762.762C1.357 2.205 1 3.855 1 5.5c0 1.645.357 3.295.373 3.364a.998.998 0 0 0 .762.762c.07.016 1.72.374 3.365.374 1.645 0 3.295-.358 3.365-.374a.998.998 0 0 0 .762-.762C9.643 8.795 10 7.145 10 5.5c0-1.645-.357-3.295-.373-3.364a.998.998 0 0 0-.762-.762ZM7.792 7.792C7.222 7.885 6.351 8 5.5 8c-.851 0-1.721-.115-2.292-.208A14.814 14.814 0 0 1 3 5.5c0-.847.114-1.721.208-2.292C3.778 3.115 4.649 3 5.5 3c.851 0 1.721.115 2.292.208C7.886 3.78 8 4.653 8 5.5c0 .847-.114 1.721-.208 2.292Zm5.343 1.834c.07.016 1.72.374 3.365.374 1.645 0 3.295-.358 3.365-.374a.998.998 0 0 0 .762-.762C20.643 8.795 21 7.145 21 5.5c0-1.645-.357-3.295-.373-3.364a.998.998 0 0 0-.762-.762C19.795 1.358 18.145 1 16.5 1c-1.645 0-3.295.358-3.365.374a.998.998 0 0 0-.762.762C12.357 2.205 12 3.855 12 5.5c0 1.645.357 3.295.373 3.364a.998.998 0 0 0 .762.762Zm1.073-6.418C14.778 3.115 15.649 3 16.5 3c.851 0 1.721.115 2.292.208.094.572.208 1.445.208 2.292 0 .847-.114 1.721-.208 2.292-.57.093-1.441.208-2.292.208-.851 0-1.721-.115-2.292-.208A14.814 14.814 0 0 1 14 5.5c0-.847.114-1.721.208-2.292Zm-5.344 9.165C8.795 12.357 7.145 12 5.5 12c-1.645 0-3.295.357-3.364.373a.997.997 0 0 0-.763.763C1.357 13.205 1 14.855 1 16.5c0 1.645.357 3.295.373 3.364.083.382.381.68.763.763.069.016 1.719.373 3.364.373 1.645 0 3.295-.357 3.364-.373a.997.997 0 0 0 .763-.763c.016-.069.373-1.719.373-3.364 0-1.645-.357-3.295-.373-3.364a1 1 0 0 0-.763-.763Zm-1.072 6.419C7.221 18.886 6.347 19 5.5 19c-.847 0-1.721-.114-2.292-.208A14.802 14.802 0 0 1 3 16.5c0-.847.114-1.721.208-2.292A14.802 14.802 0 0 1 5.5 14c.847 0 1.721.114 2.292.208.094.571.208 1.445.208 2.292 0 .847-.114 1.721-.208 2.292Zm14.915 2.501-2.304-2.304c.382-.681.597-1.512.597-2.489 0-2.817-1.683-4.5-4.5-4.5S12 13.683 12 16.5s1.683 4.5 4.5 4.5c.977 0 1.808-.215 2.489-.597l2.304 2.304a.999.999 0 1 0 1.414-1.414ZM14 16.5c0-1.706.794-2.5 2.5-2.5s2.5.794 2.5 2.5-.794 2.5-2.5 2.5-2.5-.794-2.5-2.5Z"/></svg><svg viewBox="0 0 44 44" id="categories-1" xmlns="http://www.w3.org/2000/svg"><g opacity=".5" clip-path="url(#ha)"><path d="M22 0a22 22 0 1 0 22 22A22.024 22.024 0 0 0 22 0Zm0 40.333A18.333 18.333 0 1 1 40.333 22 18.353 18.353 0 0 1 22 40.333Z"/><path d="M22 12.834A9.167 9.167 0 1 0 31.168 22a9.178 9.178 0 0 0-9.166-9.166ZM22 27.5a5.5 5.5 0 1 1 0-11 5.5 5.5 0 0 1 0 11Z"/><path d="M22 23.833a1.833 1.833 0 1 0 0-3.666 1.833 1.833 0 0 0 0 3.666Z"/></g><defs><clipPath id="ha"><path d="M0 0h44v44H0z"/></clipPath></defs></svg><svg viewBox="0 0 44 44" id="categories-2" xmlns="http://www.w3.org/2000/svg"><path d="M34.833 5.5H9.167C4.107 5.5 0 9.607 0 14.667v14.666c0 5.06 4.107 9.167 9.167 9.167h25.666c5.06 0 9.167-4.107 9.167-9.167V14.667c0-5.06-4.107-9.167-9.167-9.167Zm5.5 23.833c0 3.025-2.475 5.5-5.5 5.5h-1.228l-1.357-2.035a3.655 3.655 0 0 0-3.043-1.631h-14.41a3.631 3.631 0 0 0-3.043 1.631l-1.357 2.035H9.167c-3.025 0-5.5-2.475-5.5-5.5V14.667c0-3.025 2.475-5.5 5.5-5.5h25.666c3.025 0 5.5 2.475 5.5 5.5v14.666Zm-9.166-14.666H12.833c-3.025 0-5.5 2.475-5.5 5.5s2.475 5.5 5.5 5.5h18.334c3.025 0 5.5-2.475 5.5-5.5s-2.475-5.5-5.5-5.5Zm-5.17 3.666a5.508 5.508 0 0 0-.33 1.834 5.5 5.5 0 0 0 .33 1.833h-8.012a5.5 5.5 0 0 0 .33-1.833c0-.642-.128-1.265-.33-1.834h8.012Zm-13.164 0c1.009 0 1.834.825 1.834 1.834A1.839 1.839 0 0 1 12.833 22 1.839 1.839 0 0 1 11 20.167c0-1.009.825-1.834 1.833-1.834ZM31.167 22a1.839 1.839 0 0 1-1.834-1.833c0-1.009.825-1.834 1.834-1.834 1.008 0 1.833.825 1.833 1.834A1.839 1.839 0 0 1 31.167 22Z" opacity=".5"/></svg><svg viewBox="0 0 44 44" id="categories-3" xmlns="http://www.w3.org/2000/svg"><path d="M18.333 11c-6.066 0-11 4.933-11 11 0 6.066 4.934 11 11 11 6.067 0 11-4.934 11-11 0-6.067-4.933-11-11-11Zm0 18.333A7.34 7.34 0 0 1 11 22a7.34 7.34 0 0 1 7.333-7.334A7.34 7.34 0 0 1 25.667 22a7.34 7.34 0 0 1-7.334 7.333Zm16.5-25.666H9.167C4.112 3.666 0 7.778 0 12.832v18.334c0 5.054 4.112 9.166 9.167 9.166h25.666c5.055 0 9.167-4.112 9.167-9.166V12.832c0-5.054-4.112-9.167-9.167-9.167Zm5.5 27.5c0 3.032-2.467 5.5-5.5 5.5H9.167a5.507 5.507 0 0 1-5.5-5.5V12.832c0-3.032 2.467-5.5 5.5-5.5h25.666c3.033 0 5.5 2.468 5.5 5.5v18.334Zm-3.666-18.334v10.412c0 1.25-.25 2.464-.741 3.611l-2.158 5.033a1.832 1.832 0 0 1-3.37-1.443l2.158-5.033A5.455 5.455 0 0 0 33 23.245V12.833a1.833 1.833 0 1 1 3.667 0ZM21.083 22a2.751 2.751 0 0 1-5.5 0 2.751 2.751 0 0 1 5.5 0Z" opacity=".5"/></svg><svg viewBox="0 0 44 44" id="categories-4" xmlns="http://www.w3.org/2000/svg"><path d="M38.5 22.777v-2.61a16.5 16.5 0 1 0-33 0v2.61a9.167 9.167 0 0 0 3.667 17.556 3.666 3.666 0 0 0 3.666-3.666v-11A3.666 3.666 0 0 0 9.167 22v-1.834a12.833 12.833 0 0 1 25.666 0V22a3.666 3.666 0 0 0-3.666 3.666v11a3.666 3.666 0 0 0 3.666 3.667A9.167 9.167 0 0 0 38.5 22.777ZM9.167 36.667a5.5 5.5 0 0 1 0-11v11Zm25.666 0v-11a5.5 5.5 0 0 1 0 11Z" opacity=".5"/></svg><svg viewBox="0 0 20 20" id="close" xmlns="http://www.w3.org/2000/svg"><path d="M15.244 5.244a.833.833 0 0 0-1.178 0l-3.822 3.822-3.822-3.822a.833.833 0 0 0-1.178 1.178l3.822 3.822-3.822 3.822a.833.833 0 0 0 1.178 1.178l3.822-3.822 3.822 3.822a.833.833 0 0 0 1.178-1.178l-3.822-3.822 3.822-3.822a.833.833 0 0 0 0-1.178Z"/></svg><svg viewBox="0 0 24 24" id="fav" xmlns="http://www.w3.org/2000/svg"><g clip-path="url(#ma)"><path d="M17.5 1.917a6.4 6.4 0 0 0-5.5 3.3 6.4 6.4 0 0 0-5.5-3.3A6.8 6.8 0 0 0 0 8.967c0 4.547 4.786 9.513 8.8 12.88a4.974 4.974 0 0 0 6.4 0c4.014-3.367 8.8-8.333 8.8-12.88a6.8 6.8 0 0 0-6.5-7.05Zm-3.585 18.4a2.973 2.973 0 0 1-3.83 0C4.947 16.006 2 11.87 2 8.967a4.8 4.8 0 0 1 4.5-5.05 4.8 4.8 0 0 1 4.5 5.05 1 1 0 1 0 2 0 4.8 4.8 0 0 1 4.5-5.05 4.8 4.8 0 0 1 4.5 5.05c0 2.903-2.947 7.039-8.085 11.346v.004Z"/></g><defs><clipPath id="ma"><path d="M0 0h24v24H0z"/></clipPath></defs></svg><svg viewBox="0 0 25 24" id="house" xmlns="http://www.w3.org/2000/svg"><g clip-path="url(#na)"><path d="M14.6 18h-4c-1.103 0-2-.897-2-2v-4c0-1.103.897-2 2-2h4c1.103 0 2 .897 2 2v4c0 1.103-.897 2-2 2Zm-4-6v4h4.002l-.002-4h-4Zm9 12h-14c-2.757 0-5-2.243-5-5V9.724c0-1.665.824-3.215 2.204-4.145L9.803.855a4.98 4.98 0 0 1 5.594 0l7 4.724A4.992 4.992 0 0 1 24.6 9.724V19c0 2.757-2.243 5-5 5Zm-7-22.003a2.99 2.99 0 0 0-1.678.517l-7 4.723A2.993 2.993 0 0 0 2.6 9.723V19c0 1.654 1.346 3 3 3h14c1.654 0 3-1.346 3-3V9.724c0-.999-.494-1.929-1.321-2.486l-7.001-4.724a2.99 2.99 0 0 0-1.678-.517Z"/></g><defs><clipPath id="na"><path transform="translate(.6)" d="M0 0h24v24H0z"/></clipPath></defs></svg><svg viewBox="0 0 25 24" id="marker" xmlns="http://www.w3.org/2000/svg"><g clip-path="url(#oa)"><path d="m12.758 24.008-.697-.598c-.961-.804-9.352-8.05-9.352-13.352C2.709 4.508 7.209.01 12.758.01c5.55 0 10.049 4.5 10.049 10.05 0 5.3-8.39 12.547-9.348 13.356l-.701.593Zm0-21.826a7.885 7.885 0 0 0-7.876 7.876c0 3.33 5.162 8.65 7.876 11.085 2.714-2.436 7.876-7.759 7.876-11.085a7.885 7.885 0 0 0-7.876-7.876Z"/><path d="M12.758 14.041a3.983 3.983 0 1 1 0-7.966 3.983 3.983 0 0 1 0 7.966Zm0-5.975a1.992 1.992 0 1 0 0 3.984 1.992 1.992 0 0 0 0-3.984Z"/></g><defs><clipPath id="oa"><path transform="translate(.8)" d="M0 0h24v24H0z"/></clipPath></defs></svg><svg viewBox="0 0 12 12" id="minus" xmlns="http://www.w3.org/2000/svg"><path d="M8.5 5.5h-5a.5.5 0 0 0 0 1h5a.5.5 0 0 0 0-1Z"/></svg><svg viewBox="0 0 12 12" id="plus" xmlns="http://www.w3.org/2000/svg"><path d="M9 5.4H6.6V3a.6.6 0 1 0-1.2 0v2.4H3a.6.6 0 1 0 0 1.2h2.4V9a.6.6 0 0 0 1.2 0V6.6H9a.6.6 0 1 0 0-1.2Z"/></svg><svg viewBox="0 0 20 21" id="search" xmlns="http://www.w3.org/2000/svg"><circle cx="9.806" cy="10.305" r="7.49"/><path d="m15.016 15.904 2.936 2.93"/></svg><svg viewBox="0 0 16 16" id="sort" xmlns="http://www.w3.org/2000/svg"><g clip-path="url(#sa)"><path d="M7.528 11.805 5.333 14V.667A.666.666 0 1 0 4 .667V14l-2.196-2.195a.666.666 0 1 0-.942.942l2.862 2.862c.26.26.6.39.942.39.342 0 .683-.13.943-.39l2.862-2.862a.666.666 0 1 0-.943-.942Zm7.61-7.61a.666.666 0 0 0 0-.942L12.274.39a1.33 1.33 0 0 0-1.884 0L7.528 3.252a.666.666 0 1 0 .943.943l2.195-2.196v13.334a.666.666 0 1 0 1.333 0V2l2.196 2.195c.26.261.682.261.942 0Z"/></g><defs><clipPath id="sa"><path d="M0 0h16v16H0z"/></clipPath></defs></svg><svg viewBox="0 0 24 24" id="user" xmlns="http://www.w3.org/2000/svg"><path d="M12 12a6 6 0 1 0 0-12 6 6 0 0 0 0 12Zm0-10a4 4 0 1 1 0 8 4 4 0 0 1 0-8Zm0 12a9.01 9.01 0 0 0-9 9 1 1 0 1 0 2 0 7 7 0 1 1 14 0 1 1 0 0 0 2 0 9.01 9.01 0 0 0-9-9Z"/></svg></svg>